<svg xmlns="http://www.w3.org/2000/svg" width="96" height="96" viewBox="0 0 96 96"><g stroke-linecap="round" stroke-linejoin="round"><ellipse cx="48" cy="81" rx="40" ry="6" fill="#9DB17B"/><rect x="18.5" y="19.0" width="59.0" height="57.0" rx="2" fill="#AFC7A8" stroke="#604A35" stroke-width="2"/><path d="M13.5 23.0 L48 6.0 L82.5 23.0 L75.5 27.0 L48 11.0 L20.5 27.0 Z" fill="#587763" stroke="#604A35" stroke-width="2.1"/><path d="M10.5 73V62m-5 11 5-9 5 9Z" fill="#62845D" stroke="#4E6948" stroke-width="1.5"/><rect x="30.9" y="20.6" width="4.6" height="4.1" rx="1" fill="#F2D38A" stroke="#604A35" stroke-width="1.1"/><rect x="57.5" y="20.6" width="4.6" height="4.1" rx="1" fill="#F2D38A" stroke="#604A35" stroke-width="1.1"/><rect x="30.9" y="27.8" width="4.6" height="4.1" rx="1" fill="#F2D38A" stroke="#604A35" stroke-width="1.1"/><rect x="57.5" y="27.8" width="4.6" height="4.1" rx="1" fill="#F2D38A" stroke="#604A35" stroke-width="1.1"/><rect x="30.9" y="34.9" width="4.6" height="4.1" rx="1" fill="#F2D38A" stroke="#604A35" stroke-width="1.1"/><rect x="57.5" y="34.9" width="4.6" height="4.1" rx="1" fill="#F2D38A" stroke="#604A35" stroke-width="1.1"/><rect x="30.9" y="42.0" width="4.6" height="4.1" rx="1" fill="#F2D38A" stroke="#604A35" stroke-width="1.1"/><rect x="57.5" y="42.0" width="4.6" height="4.1" rx="1" fill="#F2D38A" stroke="#604A35" stroke-width="1.1"/><rect x="30.9" y="49.1" width="4.6" height="4.1" rx="1" fill="#F2D38A" stroke="#604A35" stroke-width="1.1"/><rect x="57.5" y="49.1" width="4.6" height="4.1" rx="1" fill="#F2D38A" stroke="#604A35" stroke-width="1.1"/><rect x="30.9" y="56.3" width="4.6" height="4.1" rx="1" fill="#F2D38A" stroke="#604A35" stroke-width="1.1"/><rect x="57.5" y="56.3" width="4.6" height="4.1" rx="1" fill="#F2D38A" stroke="#604A35" stroke-width="1.1"/><rect x="30.9" y="63.4" width="4.6" height="4.1" rx="1" fill="#F2D38A" stroke="#604A35" stroke-width="1.1"/><rect x="57.5" y="63.4" width="4.6" height="4.1" rx="1" fill="#F2D38A" stroke="#604A35" stroke-width="1.1"/><rect x="30.9" y="70.5" width="4.6" height="4.1" rx="1" fill="#F2D38A" stroke="#604A35" stroke-width="1.1"/><rect x="57.5" y="70.5" width="4.6" height="4.1" rx="1" fill="#F2D38A" stroke="#604A35" stroke-width="1.1"/><path d="M44 76v-10.0a4 4 0 0 1 8 0v10.0Z" fill="#B85F67" stroke="#604A35" stroke-width="1.4"/><path d="M22.5 13.0h10v5h-10Z" fill="#EBD9B1" stroke="#604A35" stroke-width="1.4"/><text x="48" y="94" text-anchor="middle" font-family="sans-serif" font-size="7" font-weight="700" fill="#503E2E">Lv.345</text></g></svg>