<svg xmlns="http://www.w3.org/2000/svg" width="128" height="128" viewBox="0 0 128 128"><defs>
<linearGradient id="seed"><stop stop-color="#E5BF79"/><stop offset="1" stop-color="#B27943"/></linearGradient>
<linearGradient id="bark"><stop stop-color="#B18A53"/><stop offset="1" stop-color="#795B37"/></linearGradient>
<linearGradient id="window" x2="0" y2="1"><stop stop-color="#D0DFCD"/><stop offset="1" stop-color="#7EABB4"/></linearGradient>
<linearGradient id="glass"><stop stop-color="#D5E9E2"/><stop offset=".4" stop-color="#ACCED4"/><stop offset="1" stop-color="#6D9CA9"/></linearGradient>
</defs><g stroke-linecap="round" stroke-linejoin="round"><ellipse cx="64" cy="116" rx="43" ry="4" fill="#A1ADA1" stroke="none" stroke-width="1"/><path d="M16 103Q64 87 112 103L112 108Q64 124 16 108Z" fill="#839D6F" stroke="#667A5B" stroke-width="1.2" /><ellipse cx="64" cy="103" rx="48" ry="13" fill="#B8C99A" stroke="#78916B" stroke-width="1.4"/><path d="M25 104Q52 96 87 101Q98 103 104 104" fill="none" stroke="#E8E6C9" stroke-width="1.2" /><g transform="translate(0 3) scale(1 .97)"><g transform="translate(0 23.980) scale(1 0.78)"><rect x="25.00" y="78.00" width="41.00" height="30.00" rx="0" fill="#C7AD88" stroke="#594939" stroke-width="1.5" /><rect x="63.00" y="62.00" width="38.00" height="43.00" rx="0" fill="#D4BE98" stroke="#594939" stroke-width="1.5" /><rect x="40.00" y="50.00" width="39.00" height="28.00" rx="0" fill="#B69B78" stroke="#594939" stroke-width="1.5" /><rect x="30.00" y="80.00" width="11.00" height="7.00" rx="0" fill="#76664F" stroke="#594939" stroke-width="1.5" /><rect x="68.00" y="65.00" width="11.00" height="7.00" rx="0" fill="#76664F" stroke="#594939" stroke-width="1.5" /><rect x="49.00" y="52.00" width="11.00" height="7.00" rx="0" fill="#76664F" stroke="#594939" stroke-width="1.5" /><path d="M86.00 80.00L86.00 114.00" fill="none" stroke="#967B53" stroke-width="2"/><path d="M97.00 79.00L97.00 114.00" fill="none" stroke="#967B53" stroke-width="2"/><path d="M86.00 83.00L97.00 83.00" fill="none" stroke="#967B53" stroke-width="2"/><path d="M86.00 90.00L97.00 90.00" fill="none" stroke="#967B53" stroke-width="2"/><path d="M86.00 97.00L97.00 97.00" fill="none" stroke="#967B53" stroke-width="2"/><path d="M86.00 104.00L97.00 104.00" fill="none" stroke="#967B53" stroke-width="2"/><path d="M86.00 111.00L97.00 111.00" fill="none" stroke="#967B53" stroke-width="2"/></g></g></g></svg>