<svg xmlns="http://www.w3.org/2000/svg" width="128" height="128" viewBox="0 0 128 128"><defs>
<linearGradient id="seed"><stop stop-color="#E5BF79"/><stop offset="1" stop-color="#B27943"/></linearGradient>
<linearGradient id="bark"><stop stop-color="#B18A53"/><stop offset="1" stop-color="#795B37"/></linearGradient>
<linearGradient id="window" x2="0" y2="1"><stop stop-color="#D0DFCD"/><stop offset="1" stop-color="#7EABB4"/></linearGradient>
<linearGradient id="glass"><stop stop-color="#D5E9E2"/><stop offset=".4" stop-color="#ACCED4"/><stop offset="1" stop-color="#6D9CA9"/></linearGradient>
</defs><g stroke-linecap="round" stroke-linejoin="round"><ellipse cx="64" cy="116" rx="43" ry="4" fill="#A1ADA1" stroke="none" stroke-width="1"/><path d="M16 103Q64 87 112 103L112 108Q64 124 16 108Z" fill="#839D6F" stroke="#667A5B" stroke-width="1.2" /><ellipse cx="64" cy="103" rx="48" ry="13" fill="#B8C99A" stroke="#78916B" stroke-width="1.4"/><path d="M25 104Q52 96 87 101Q98 103 104 104" fill="none" stroke="#E8E6C9" stroke-width="1.2" /><g transform="translate(0 3) scale(1 .97)"><g transform="translate(0 0.000) scale(1 1)"><rect x="22.00" y="88.00" width="84.00" height="22.00" rx="0" fill="#C4A172" stroke="#594939" stroke-width="1.5" /><path d="M22 88L28 84H112L106 88Z" fill="#E0C398" stroke="#594939" stroke-width="1" /><rect x="32.00" y="69.00" width="64.00" height="20.00" rx="0" fill="#C4A172" stroke="#594939" stroke-width="1.5" /><path d="M32 69L38 65H102L96 69Z" fill="#E0C398" stroke="#594939" stroke-width="1" /><rect x="43.00" y="51.00" width="43.00" height="19.00" rx="0" fill="#C4A172" stroke="#594939" stroke-width="1.5" /><path d="M43 51L49 47H92L86 51Z" fill="#E0C398" stroke="#594939" stroke-width="1" /><rect x="53.00" y="37.00" width="24.00" height="14.00" rx="0" fill="#C4A172" stroke="#594939" stroke-width="1.5" /><path d="M53 37L59 33H83L77 37Z" fill="#E0C398" stroke="#594939" stroke-width="1" /><path d="M52 111L59 75H70L78 111Z" fill="#AD845C" stroke="#594939" stroke-width="1.2" /><path d="M47.30 87.00L81.70 87.00" fill="none" stroke="#D8B98A" stroke-width="1"/><path d="M46.80 92.00L82.20 92.00" fill="none" stroke="#D8B98A" stroke-width="1"/><path d="M46.30 97.00L82.70 97.00" fill="none" stroke="#D8B98A" stroke-width="1"/><path d="M45.80 102.00L83.20 102.00" fill="none" stroke="#D8B98A" stroke-width="1"/><path d="M45.30 107.00L83.70 107.00" fill="none" stroke="#D8B98A" stroke-width="1"/></g><path d="M42 111L48 78H76L87 111Z" fill="#E0D5B7" stroke="#594939" stroke-width="1.7" /><path d="M47.00 81.00L77.00 81.00" fill="none" stroke="#998562" stroke-width="1.3"/><path d="M46.70 85.00L77.60 85.00" fill="none" stroke="#998562" stroke-width="1.3"/><path d="M46.40 89.00L78.20 89.00" fill="none" stroke="#998562" stroke-width="1.3"/><path d="M46.10 93.00L78.80 93.00" fill="none" stroke="#998562" stroke-width="1.3"/><path d="M45.80 97.00L79.40 97.00" fill="none" stroke="#998562" stroke-width="1.3"/><path d="M45.50 101.00L80.00 101.00" fill="none" stroke="#998562" stroke-width="1.3"/><path d="M45.20 105.00L80.60 105.00" fill="none" stroke="#998562" stroke-width="1.3"/><path d="M44.90 109.00L81.20 109.00" fill="none" stroke="#998562" stroke-width="1.3"/><rect x="15.00" y="95.00" width="25.00" height="16.00" rx="0" fill="#ACB3A0" stroke="#594939" stroke-width="1.5" /><path d="M11 95L27.5 81L44 95Z" fill="#E0D5B7" stroke="#594939" stroke-width="1.7" /><rect x="92.00" y="86.00" width="20.00" height="25.00" rx="0" fill="#ACB3A0" stroke="#594939" stroke-width="1.5" /></g></g></svg>