<svg xmlns="http://www.w3.org/2000/svg" width="512" height="512" viewBox="0 0 128 128"><defs>
    <linearGradient id="seed" x1="0" y1="0" x2="1" y2="1"><stop stop-color="#E5BF79"/><stop offset="1" stop-color="#B27943"/></linearGradient>
    <linearGradient id="bark"><stop stop-color="#B18A53"/><stop offset="1" stop-color="#795B37"/></linearGradient>
    <linearGradient id="window" x2="0" y2="1"><stop stop-color="#D0DFCD"/><stop offset="1" stop-color="#7EABB4"/></linearGradient>
    <linearGradient id="glass"><stop stop-color="#D5E9E2"/><stop offset=".4" stop-color="#ACCED4"/><stop offset="1" stop-color="#6D9CA9"/></linearGradient>
    </defs><g stroke-linecap="round" stroke-linejoin="round"><ellipse cx="64" cy="116" rx="43" ry="4" fill="#A1ADA1" stroke="none" stroke-width="1"/><path d="M16 103Q64 87 112 103L112 108Q64 124 16 108Z" fill="#839D6F" stroke="#667A5B" stroke-width="1.2" /><ellipse cx="64" cy="103" rx="48" ry="13" fill="#B8C99A" stroke="#78916B" stroke-width="1.4"/><path d="M25 104Q52 96 87 101Q98 103 104 104" fill="none" stroke="#E8E6C9" stroke-width="1.2" /><ellipse cx="64" cy="104" rx="25" ry="6" fill="#7B6346" stroke="none" stroke-width="1"/><path d="M55 74Q36 78 43 96Q50 105 58 103L59 92L54 86L59 81Z" fill="url(#seed)" stroke="#77502F" stroke-width="2" /><path d="M69 74Q88 82 84 97Q76 108 67 102L67 93L72 86L67 81Z" fill="url(#seed)" stroke="#77502F" stroke-width="2" /><path d="M50 81Q43 91 50 98M76 81Q82 90 77 97" fill="none" stroke="#F4DFA6" stroke-width="2" /><path d="M64 75L59 82L67 88L61 95L67 101" fill="none" stroke="#573D2B" stroke-width="2.1" /><path d="M58 100Q49 109 44 110M48 105L44 102" fill="none" stroke="#EEE0B4" stroke-width="2.5" /><path d="M64 96Q56 77 64 57" fill="none" stroke="#719553" stroke-width="4" /><path d="M58 105Q42 121 23 109M66 105Q90 125 106 104" fill="none" stroke="#E1CEA1" stroke-width="4.5" /><path d="M60 105Q41 109 33 105M65 106Q79 118 91 111" fill="none" stroke="#E1CEA1" stroke-width="3" /><path d="M64.00 73.00L51.00 55.00" fill="none" stroke="#719553" stroke-width="2.5"/><g transform="translate(51 55) rotate(-35)"><path d="M0 0Q-11 -7.699999999999999 -8.25 -17.6Q2.2 -16.5 0 0Z" fill="#77A45C" stroke="#4F7348" stroke-width="1.4" /><path d="M0.00 0.00L-5.50 -11.00" fill="none" stroke="#C5D791" stroke-width="1.3"/></g><g transform="translate(64 57) rotate(65)"><path d="M0 0Q-15 -10.5 -11.25 -24.0Q3.0 -22.5 0 0Z" fill="#99B974" stroke="#4F7348" stroke-width="1.4" /><path d="M0.00 0.00L-7.50 -15.00" fill="none" stroke="#C5D791" stroke-width="1.3"/></g></g></svg>