<svg xmlns="http://www.w3.org/2000/svg" width="512" height="512" viewBox="0 0 128 128"><defs>
<linearGradient id="seed"><stop stop-color="#E5BF79"/><stop offset="1" stop-color="#B27943"/></linearGradient>
<linearGradient id="bark"><stop stop-color="#B18A53"/><stop offset="1" stop-color="#795B37"/></linearGradient>
<linearGradient id="window" x2="0" y2="1"><stop stop-color="#D0DFCD"/><stop offset="1" stop-color="#7EABB4"/></linearGradient>
<linearGradient id="glass"><stop stop-color="#D5E9E2"/><stop offset=".4" stop-color="#ACCED4"/><stop offset="1" stop-color="#6D9CA9"/></linearGradient>
</defs><g stroke-linecap="round" stroke-linejoin="round"><ellipse cx="64" cy="116" rx="43" ry="4" fill="#A1ADA1" stroke="none" stroke-width="1"/><path d="M16 103Q64 87 112 103L112 108Q64 124 16 108Z" fill="#AAB6A1" stroke="#667A5B" stroke-width="1.2" /><ellipse cx="64" cy="103" rx="48" ry="13" fill="#D9DFD1" stroke="#78916B" stroke-width="1.4"/><path d="M25 104Q52 96 87 101Q98 103 104 104" fill="none" stroke="#E8E6C9" stroke-width="1.2" /><g transform="translate(0 3) scale(1 .97)"><path d="M31 110Q20 88 34 75L39 66V44Q36 27 58 24Q82 23 81 43V69Q105 82 99 110Z" fill="#EBE7D8" stroke="#594939" stroke-width="2" /><path d="M39 46Q38 20 59 18Q82 17 84 45Z" fill="#E0D5B7" stroke="#594939" stroke-width="2" /><ellipse cx="60" cy="41" rx="14" ry="8" fill="#91BAC2" stroke="#594939" stroke-width="1.4"/></g></g></svg>