<svg xmlns="http://www.w3.org/2000/svg" width="512" height="512" viewBox="0 0 128 128"><defs>
    <linearGradient id="seed" x1="0" y1="0" x2="1" y2="1"><stop stop-color="#E5BF79"/><stop offset="1" stop-color="#B27943"/></linearGradient>
    <linearGradient id="bark"><stop stop-color="#B18A53"/><stop offset="1" stop-color="#795B37"/></linearGradient>
    <linearGradient id="window" x2="0" y2="1"><stop stop-color="#D0DFCD"/><stop offset="1" stop-color="#7EABB4"/></linearGradient>
    <linearGradient id="glass"><stop stop-color="#D5E9E2"/><stop offset=".4" stop-color="#ACCED4"/><stop offset="1" stop-color="#6D9CA9"/></linearGradient>
    </defs><g stroke-linecap="round" stroke-linejoin="round"><ellipse cx="64" cy="116" rx="43" ry="4" fill="#A1ADA1" stroke="none" stroke-width="1"/><path d="M16 103Q64 87 112 103L112 108Q64 124 16 108Z" fill="#AAB6A1" stroke="#667A5B" stroke-width="1.2" /><ellipse cx="64" cy="103" rx="48" ry="13" fill="#D9DFD1" stroke="#78916B" stroke-width="1.4"/><path d="M25 104Q52 96 87 101Q98 103 104 104" fill="none" stroke="#E8E6C9" stroke-width="1.2" /><path d="M78.0 10L91.0 5V100L78.0 105Z" fill="#9BADA8" stroke="#594939" stroke-width="1.6" /><rect x="44.00" y="10.00" width="34.00" height="95.00" rx="1" fill="#A8C9D2" stroke="#594939" stroke-width="1.5" /><path d="M44.0 10L57.0 5H91.0L78.0 10Z" fill="#CFE4E2" stroke="#594939" stroke-width="1.4" /><rect x="48.00" y="17.00" width="26.00" height="4.50" rx="0.5" fill="#668F9F" stroke="#CDE4E1" stroke-width="0.5" /><path d="M52.00 17.00L52.00 21.50" fill="none" stroke="#DFEEDE" stroke-width="0.7"/><path d="M58.00 17.00L58.00 21.50" fill="none" stroke="#DFEEDE" stroke-width="0.7"/><path d="M64.00 17.00L64.00 21.50" fill="none" stroke="#DFEEDE" stroke-width="0.7"/><path d="M70.00 17.00L70.00 21.50" fill="none" stroke="#DFEEDE" stroke-width="0.7"/><rect x="82.00" y="15.00" width="5.00" height="5.00" rx="0.3" fill="#6C8E91" stroke="#D4E0CA" stroke-width="0.5" /><rect x="48.00" y="24.90" width="26.00" height="4.50" rx="0.5" fill="#668F9F" stroke="#CDE4E1" stroke-width="0.5" /><path d="M52.00 24.90L52.00 29.40" fill="none" stroke="#DFEEDE" stroke-width="0.7"/><path d="M58.00 24.90L58.00 29.40" fill="none" stroke="#DFEEDE" stroke-width="0.7"/><path d="M64.00 24.90L64.00 29.40" fill="none" stroke="#DFEEDE" stroke-width="0.7"/><path d="M70.00 24.90L70.00 29.40" fill="none" stroke="#DFEEDE" stroke-width="0.7"/><rect x="82.00" y="22.90" width="5.00" height="5.00" rx="0.3" fill="#6C8E91" stroke="#D4E0CA" stroke-width="0.5" /><rect x="48.00" y="32.80" width="26.00" height="4.50" rx="0.5" fill="#668F9F" stroke="#CDE4E1" stroke-width="0.5" /><path d="M52.00 32.80L52.00 37.30" fill="none" stroke="#DFEEDE" stroke-width="0.7"/><path d="M58.00 32.80L58.00 37.30" fill="none" stroke="#DFEEDE" stroke-width="0.7"/><path d="M64.00 32.80L64.00 37.30" fill="none" stroke="#DFEEDE" stroke-width="0.7"/><path d="M70.00 32.80L70.00 37.30" fill="none" stroke="#DFEEDE" stroke-width="0.7"/><rect x="82.00" y="30.80" width="5.00" height="5.00" rx="0.3" fill="#6C8E91" stroke="#D4E0CA" stroke-width="0.5" /><rect x="48.00" y="40.70" width="26.00" height="4.50" rx="0.5" fill="#668F9F" stroke="#CDE4E1" stroke-width="0.5" /><path d="M52.00 40.70L52.00 45.20" fill="none" stroke="#DFEEDE" stroke-width="0.7"/><path d="M58.00 40.70L58.00 45.20" fill="none" stroke="#DFEEDE" stroke-width="0.7"/><path d="M64.00 40.70L64.00 45.20" fill="none" stroke="#DFEEDE" stroke-width="0.7"/><path d="M70.00 40.70L70.00 45.20" fill="none" stroke="#DFEEDE" stroke-width="0.7"/><rect x="82.00" y="38.70" width="5.00" height="5.00" rx="0.3" fill="#6C8E91" stroke="#D4E0CA" stroke-width="0.5" /><rect x="48.00" y="48.60" width="26.00" height="4.50" rx="0.5" fill="#668F9F" stroke="#CDE4E1" stroke-width="0.5" /><path d="M52.00 48.60L52.00 53.10" fill="none" stroke="#DFEEDE" stroke-width="0.7"/><path d="M58.00 48.60L58.00 53.10" fill="none" stroke="#DFEEDE" stroke-width="0.7"/><path d="M64.00 48.60L64.00 53.10" fill="none" stroke="#DFEEDE" stroke-width="0.7"/><path d="M70.00 48.60L70.00 53.10" fill="none" stroke="#DFEEDE" stroke-width="0.7"/><rect x="82.00" y="46.60" width="5.00" height="5.00" rx="0.3" fill="#6C8E91" stroke="#D4E0CA" stroke-width="0.5" /><rect x="48.00" y="56.50" width="26.00" height="4.50" rx="0.5" fill="#668F9F" stroke="#CDE4E1" stroke-width="0.5" /><path d="M52.00 56.50L52.00 61.00" fill="none" stroke="#DFEEDE" stroke-width="0.7"/><path d="M58.00 56.50L58.00 61.00" fill="none" stroke="#DFEEDE" stroke-width="0.7"/><path d="M64.00 56.50L64.00 61.00" fill="none" stroke="#DFEEDE" stroke-width="0.7"/><path d="M70.00 56.50L70.00 61.00" fill="none" stroke="#DFEEDE" stroke-width="0.7"/><rect x="82.00" y="54.50" width="5.00" height="5.00" rx="0.3" fill="#6C8E91" stroke="#D4E0CA" stroke-width="0.5" /><rect x="48.00" y="64.40" width="26.00" height="4.50" rx="0.5" fill="#668F9F" stroke="#CDE4E1" stroke-width="0.5" /><path d="M52.00 64.40L52.00 68.90" fill="none" stroke="#DFEEDE" stroke-width="0.7"/><path d="M58.00 64.40L58.00 68.90" fill="none" stroke="#DFEEDE" stroke-width="0.7"/><path d="M64.00 64.40L64.00 68.90" fill="none" stroke="#DFEEDE" stroke-width="0.7"/><path d="M70.00 64.40L70.00 68.90" fill="none" stroke="#DFEEDE" stroke-width="0.7"/><rect x="82.00" y="62.40" width="5.00" height="5.00" rx="0.3" fill="#6C8E91" stroke="#D4E0CA" stroke-width="0.5" /><rect x="48.00" y="72.30" width="26.00" height="4.50" rx="0.5" fill="#668F9F" stroke="#CDE4E1" stroke-width="0.5" /><path d="M52.00 72.30L52.00 76.80" fill="none" stroke="#DFEEDE" stroke-width="0.7"/><path d="M58.00 72.30L58.00 76.80" fill="none" stroke="#DFEEDE" stroke-width="0.7"/><path d="M64.00 72.30L64.00 76.80" fill="none" stroke="#DFEEDE" stroke-width="0.7"/><path d="M70.00 72.30L70.00 76.80" fill="none" stroke="#DFEEDE" stroke-width="0.7"/><rect x="82.00" y="70.30" width="5.00" height="5.00" rx="0.3" fill="#6C8E91" stroke="#D4E0CA" stroke-width="0.5" /><rect x="48.00" y="80.20" width="26.00" height="4.50" rx="0.5" fill="#668F9F" stroke="#CDE4E1" stroke-width="0.5" /><path d="M52.00 80.20L52.00 84.70" fill="none" stroke="#DFEEDE" stroke-width="0.7"/><path d="M58.00 80.20L58.00 84.70" fill="none" stroke="#DFEEDE" stroke-width="0.7"/><path d="M64.00 80.20L64.00 84.70" fill="none" stroke="#DFEEDE" stroke-width="0.7"/><path d="M70.00 80.20L70.00 84.70" fill="none" stroke="#DFEEDE" stroke-width="0.7"/><rect x="82.00" y="78.20" width="5.00" height="5.00" rx="0.3" fill="#6C8E91" stroke="#D4E0CA" stroke-width="0.5" /><rect x="48.00" y="88.10" width="26.00" height="4.50" rx="0.5" fill="#668F9F" stroke="#CDE4E1" stroke-width="0.5" /><path d="M52.00 88.10L52.00 92.60" fill="none" stroke="#DFEEDE" stroke-width="0.7"/><path d="M58.00 88.10L58.00 92.60" fill="none" stroke="#DFEEDE" stroke-width="0.7"/><path d="M64.00 88.10L64.00 92.60" fill="none" stroke="#DFEEDE" stroke-width="0.7"/><path d="M70.00 88.10L70.00 92.60" fill="none" stroke="#DFEEDE" stroke-width="0.7"/><rect x="82.00" y="86.10" width="5.00" height="5.00" rx="0.3" fill="#6C8E91" stroke="#D4E0CA" stroke-width="0.5" /><rect x="57.60" y="94.00" width="11.00" height="11.00" rx="0.7" fill="#668C92" stroke="#594939" stroke-width="1.5" /><rect x="32.00" y="88.00" width="36.00" height="18.00" rx="1.4" fill="#DFCCAA" stroke="#594939" stroke-width="1.5" /><rect x="35.00" y="93.00" width="30.00" height="8.00" rx="0.7" fill="#83B3B8" stroke="#594939" stroke-width="1.5" /><path d="M31.0 88L38.0 84H73.0L68.0 88Z" fill="#B6C9A5" stroke="#594939" stroke-width="1.1" /><path d="M40.0 29H81.0V35H40.0Z" fill="#D4E3C0" stroke="#594939" stroke-width="1.2" /><ellipse cx="46.4" cy="30" rx="2.8" ry="3.2" fill="#7AA16B" stroke="none" stroke-width="1"/><ellipse cx="50.8" cy="29" rx="3.2" ry="3.2" fill="#7AA16B" stroke="none" stroke-width="1"/><ellipse cx="49.0" cy="28.2" rx="3.2" ry="3.2" fill="#A0BD7F" stroke="none" stroke-width="1"/><path d="M57.6 10V2H67.8V10Z" fill="#BBCBBA" stroke="#594939" stroke-width="1.2" /><path d="M54.0 10Q61.0 -4 76.0 10Z" fill="#CCE0D6" stroke="#594939" stroke-width="1.5" /><ellipse cx="20.75" cy="106" rx="3.5" ry="4.0" fill="#7AA16B" stroke="none" stroke-width="1"/><ellipse cx="26.25" cy="105" rx="4.0" ry="4.0" fill="#7AA16B" stroke="none" stroke-width="1"/><ellipse cx="24" cy="103.75" rx="4.0" ry="4.0" fill="#A0BD7F" stroke="none" stroke-width="1"/><ellipse cx="101.75" cy="103" rx="3.5" ry="4.0" fill="#7AA16B" stroke="none" stroke-width="1"/><ellipse cx="107.25" cy="102" rx="4.0" ry="4.0" fill="#7AA16B" stroke="none" stroke-width="1"/><ellipse cx="105" cy="100.75" rx="4.0" ry="4.0" fill="#A0BD7F" stroke="none" stroke-width="1"/></g></svg>