<svg xmlns="http://www.w3.org/2000/svg" width="96" height="96" viewBox="0 0 96 96"><g stroke-linecap="round" stroke-linejoin="round"><ellipse cx="48" cy="81" rx="40" ry="6" fill="#9DB17B"/><rect x="23.0" y="34.0" width="50.0" height="42.0" rx="2" fill="#E4B96D" stroke="#604A35" stroke-width="2"/><path d="M18.0 38.0 L48 21.0 L78.0 38.0 L71.0 42.0 L48 26.0 L25.0 42.0 Z" fill="#5F6185" stroke="#604A35" stroke-width="2.1"/><path d="M26.0 38.0l12 0-2 7-12 0Z" fill="#5B7890" stroke="#425B6F" stroke-width="1.6"/><path d="M79 15v8m-4-4h8" stroke="#D4A84F" stroke-width="2.2"/><rect x="33.2" y="35.9" width="4.6" height="4.9" rx="1" fill="#B7A3D8" stroke="#604A35" stroke-width="1.1"/><rect x="55.7" y="35.9" width="4.6" height="4.9" rx="1" fill="#B7A3D8" stroke="#604A35" stroke-width="1.1"/><rect x="33.2" y="44.3" width="4.6" height="4.9" rx="1" fill="#B7A3D8" stroke="#604A35" stroke-width="1.1"/><rect x="55.7" y="44.3" width="4.6" height="4.9" rx="1" fill="#B7A3D8" stroke="#604A35" stroke-width="1.1"/><rect x="33.2" y="52.7" width="4.6" height="4.9" rx="1" fill="#B7A3D8" stroke="#604A35" stroke-width="1.1"/><rect x="55.7" y="52.7" width="4.6" height="4.9" rx="1" fill="#B7A3D8" stroke="#604A35" stroke-width="1.1"/><rect x="33.2" y="61.1" width="4.6" height="4.9" rx="1" fill="#B7A3D8" stroke="#604A35" stroke-width="1.1"/><rect x="55.7" y="61.1" width="4.6" height="4.9" rx="1" fill="#B7A3D8" stroke="#604A35" stroke-width="1.1"/><rect x="33.2" y="69.5" width="4.6" height="4.9" rx="1" fill="#B7A3D8" stroke="#604A35" stroke-width="1.1"/><rect x="55.7" y="69.5" width="4.6" height="4.9" rx="1" fill="#B7A3D8" stroke="#604A35" stroke-width="1.1"/><path d="M44 76v-11.8a4 4 0 0 1 8 0v11.8Z" fill="#A9573F" stroke="#604A35" stroke-width="1.4"/><path d="M65.0 38.0q8-7 12 0v10h-12Z" fill="#F0D39C" stroke="#604A35" stroke-width="1.5"/><text x="48" y="94" text-anchor="middle" font-family="sans-serif" font-size="7" font-weight="700" fill="#503E2E">Lv.76</text></g></svg>