<svg xmlns="http://www.w3.org/2000/svg" width="512" height="512" viewBox="0 0 128 128"><defs>
    <linearGradient id="seed" x1="0" y1="0" x2="1" y2="1"><stop stop-color="#E5BF79"/><stop offset="1" stop-color="#B27943"/></linearGradient>
    <linearGradient id="bark"><stop stop-color="#B18A53"/><stop offset="1" stop-color="#795B37"/></linearGradient>
    <linearGradient id="window" x2="0" y2="1"><stop stop-color="#D0DFCD"/><stop offset="1" stop-color="#7EABB4"/></linearGradient>
    <linearGradient id="glass"><stop stop-color="#D5E9E2"/><stop offset=".4" stop-color="#ACCED4"/><stop offset="1" stop-color="#6D9CA9"/></linearGradient>
    </defs><g stroke-linecap="round" stroke-linejoin="round"><ellipse cx="64" cy="116" rx="43" ry="4" fill="#A1ADA1" stroke="none" stroke-width="1"/><path d="M16 103Q64 87 112 103L112 108Q64 124 16 108Z" fill="#AAB6A1" stroke="#667A5B" stroke-width="1.2" /><ellipse cx="64" cy="103" rx="48" ry="13" fill="#D9DFD1" stroke="#78916B" stroke-width="1.4"/><path d="M25 104Q52 96 87 101Q98 103 104 104" fill="none" stroke="#E8E6C9" stroke-width="1.2" /><path d="M71 52L81 46V103L71 108Z" fill="#9CA9A5" stroke="#594939" stroke-width="1.5" /><rect x="36.00" y="52.00" width="35.00" height="56.00" rx="1" fill="#E0D9C5" stroke="#594939" stroke-width="1.5" /><path d="M34 52L45 46L82 46L72 52Z" fill="#819494" stroke="#594939" stroke-width="1.3" /><rect x="40.00" y="57.00" width="6.00" height="7.00" rx="0.5" fill="#7CA4AE" stroke="#594939" stroke-width="0.7" /><rect x="49.00" y="57.00" width="6.00" height="7.00" rx="0.5" fill="#7CA4AE" stroke="#594939" stroke-width="0.7" /><rect x="58.00" y="57.00" width="6.00" height="7.00" rx="0.5" fill="#7CA4AE" stroke="#594939" stroke-width="0.7" /><rect x="34.00" y="64.00" width="39.00" height="3.00" rx="0" fill="#B9C8C1" stroke="#594939" stroke-width="0.8" /><rect x="40.00" y="69.00" width="6.00" height="7.00" rx="0.5" fill="#7CA4AE" stroke="#594939" stroke-width="0.7" /><rect x="49.00" y="69.00" width="6.00" height="7.00" rx="0.5" fill="#7CA4AE" stroke="#594939" stroke-width="0.7" /><rect x="58.00" y="69.00" width="6.00" height="7.00" rx="0.5" fill="#7CA4AE" stroke="#594939" stroke-width="0.7" /><rect x="34.00" y="76.00" width="39.00" height="3.00" rx="0" fill="#B9C8C1" stroke="#594939" stroke-width="0.8" /><rect x="40.00" y="81.00" width="6.00" height="7.00" rx="0.5" fill="#7CA4AE" stroke="#594939" stroke-width="0.7" /><rect x="49.00" y="81.00" width="6.00" height="7.00" rx="0.5" fill="#7CA4AE" stroke="#594939" stroke-width="0.7" /><rect x="58.00" y="81.00" width="6.00" height="7.00" rx="0.5" fill="#7CA4AE" stroke="#594939" stroke-width="0.7" /><rect x="34.00" y="88.00" width="39.00" height="3.00" rx="0" fill="#B9C8C1" stroke="#594939" stroke-width="0.8" /><rect x="40.00" y="93.00" width="6.00" height="7.00" rx="0.5" fill="#7CA4AE" stroke="#594939" stroke-width="0.7" /><rect x="49.00" y="93.00" width="6.00" height="7.00" rx="0.5" fill="#7CA4AE" stroke="#594939" stroke-width="0.7" /><rect x="58.00" y="93.00" width="6.00" height="7.00" rx="0.5" fill="#7CA4AE" stroke="#594939" stroke-width="0.7" /><rect x="34.00" y="100.00" width="39.00" height="3.00" rx="0" fill="#B9C8C1" stroke="#594939" stroke-width="0.8" /><rect x="49.50" y="99.00" width="8.00" height="9.00" rx="0.5" fill="#716D63" stroke="#594939" stroke-width="1.5" /></g></svg>