<svg xmlns="http://www.w3.org/2000/svg" width="512" height="512" viewBox="0 0 128 128"><defs>
    <linearGradient id="seed" x1="0" y1="0" x2="1" y2="1"><stop stop-color="#E5BF79"/><stop offset="1" stop-color="#B27943"/></linearGradient>
    <linearGradient id="bark"><stop stop-color="#B18A53"/><stop offset="1" stop-color="#795B37"/></linearGradient>
    <linearGradient id="window" x2="0" y2="1"><stop stop-color="#D0DFCD"/><stop offset="1" stop-color="#7EABB4"/></linearGradient>
    <linearGradient id="glass"><stop stop-color="#D5E9E2"/><stop offset=".4" stop-color="#ACCED4"/><stop offset="1" stop-color="#6D9CA9"/></linearGradient>
    </defs><g stroke-linecap="round" stroke-linejoin="round"><ellipse cx="64" cy="116" rx="43" ry="4" fill="#A1ADA1" stroke="none" stroke-width="1"/><path d="M16 103Q64 87 112 103L112 108Q64 124 16 108Z" fill="#839D6F" stroke="#667A5B" stroke-width="1.2" /><ellipse cx="64" cy="103" rx="48" ry="13" fill="#B8C99A" stroke="#78916B" stroke-width="1.4"/><path d="M25 104Q52 96 87 101Q98 103 104 104" fill="none" stroke="#E8E6C9" stroke-width="1.2" /><path d="M64 103Q59 68.16 64 36" fill="none" stroke="#926C43" stroke-width="5" /><ellipse cx="64" cy="104" rx="19" ry="4" fill="#A49771" stroke="none" stroke-width="1"/><g transform="translate(63 41.0) rotate(-45)"><path d="M0 0Q-18.4 -12.879999999999999 -13.799999999999999 -29.439999999999998Q3.6799999999999997 -27.599999999999998 0 0Z" fill="#719B58" stroke="#4F7348" stroke-width="1.4" /><path d="M0.00 0.00L-9.20 -18.40" fill="none" stroke="#C5D791" stroke-width="1.3"/></g><g transform="translate(63 41.0) rotate(85)"><path d="M0 0Q-18.4 -12.879999999999999 -13.799999999999999 -29.439999999999998Q3.6799999999999997 -27.599999999999998 0 0Z" fill="#9ABB75" stroke="#4F7348" stroke-width="1.4" /><path d="M0.00 0.00L-9.20 -18.40" fill="none" stroke="#C5D791" stroke-width="1.3"/></g><g transform="translate(63 59.0) rotate(-45)"><path d="M0 0Q-18.4 -12.879999999999999 -13.799999999999999 -29.439999999999998Q3.6799999999999997 -27.599999999999998 0 0Z" fill="#719B58" stroke="#4F7348" stroke-width="1.4" /><path d="M0.00 0.00L-9.20 -18.40" fill="none" stroke="#C5D791" stroke-width="1.3"/></g><g transform="translate(63 59.0) rotate(85)"><path d="M0 0Q-18.4 -12.879999999999999 -13.799999999999999 -29.439999999999998Q3.6799999999999997 -27.599999999999998 0 0Z" fill="#9ABB75" stroke="#4F7348" stroke-width="1.4" /><path d="M0.00 0.00L-9.20 -18.40" fill="none" stroke="#C5D791" stroke-width="1.3"/></g><g transform="translate(63 77.0) rotate(-45)"><path d="M0 0Q-18.4 -12.879999999999999 -13.799999999999999 -29.439999999999998Q3.6799999999999997 -27.599999999999998 0 0Z" fill="#719B58" stroke="#4F7348" stroke-width="1.4" /><path d="M0.00 0.00L-9.20 -18.40" fill="none" stroke="#C5D791" stroke-width="1.3"/></g><g transform="translate(63 77.0) rotate(85)"><path d="M0 0Q-18.4 -12.879999999999999 -13.799999999999999 -29.439999999999998Q3.6799999999999997 -27.599999999999998 0 0Z" fill="#9ABB75" stroke="#4F7348" stroke-width="1.4" /><path d="M0.00 0.00L-9.20 -18.40" fill="none" stroke="#C5D791" stroke-width="1.3"/></g><g transform="translate(63 95.0) rotate(-45)"><path d="M0 0Q-18.4 -12.879999999999999 -13.799999999999999 -29.439999999999998Q3.6799999999999997 -27.599999999999998 0 0Z" fill="#719B58" stroke="#4F7348" stroke-width="1.4" /><path d="M0.00 0.00L-9.20 -18.40" fill="none" stroke="#C5D791" stroke-width="1.3"/></g><g transform="translate(63 95.0) rotate(85)"><path d="M0 0Q-18.4 -12.879999999999999 -13.799999999999999 -29.439999999999998Q3.6799999999999997 -27.599999999999998 0 0Z" fill="#9ABB75" stroke="#4F7348" stroke-width="1.4" /><path d="M0.00 0.00L-9.20 -18.40" fill="none" stroke="#C5D791" stroke-width="1.3"/></g><path d="M64 100L57 107M64 102L74 107" fill="none" stroke="#926C43" stroke-width="3" /><ellipse cx="31.75" cy="105" rx="3.5" ry="4.0" fill="#7AA16B" stroke="none" stroke-width="1"/><ellipse cx="37.25" cy="104" rx="4.0" ry="4.0" fill="#7AA16B" stroke="none" stroke-width="1"/><ellipse cx="35" cy="102.75" rx="4.0" ry="4.0" fill="#A0BD7F" stroke="none" stroke-width="1"/><ellipse cx="87.1" cy="104" rx="4.199999999999999" ry="4.800000000000001" fill="#7AA16B" stroke="none" stroke-width="1"/><ellipse cx="93.7" cy="103" rx="4.800000000000001" ry="4.800000000000001" fill="#7AA16B" stroke="none" stroke-width="1"/><ellipse cx="91" cy="101.3" rx="4.800000000000001" ry="4.800000000000001" fill="#A0BD7F" stroke="none" stroke-width="1"/></g></svg>